<svg width="116" height="37" viewBox="0 0 116 37" fill="none" xmlns="http://www.w3.org/2000/svg">
<path d="M23.3788 36.3354H0V0.860596H23.3788V6.80695H6.70871V15.3961H21.4475V21.3425H6.70871V30.3891H23.3788V36.3354Z" fill="black"/>
<path d="M37.3354 36.3354C32.863 36.3354 30.4743 33.8959 30.4743 29.5759V14.9895H26.5609V9.80554H28.5938C30.5251 9.80554 31.135 8.89071 31.135 7.06107V2.53777H36.9797V9.80554H42.4178V14.9895H36.9797V31.1514H42.0112V36.3354H37.3354Z" fill="black"/>
<path d="M53.5493 36.3354H47.0439V9.80554H53.5493V15.2945H53.8035C54.4642 12.4992 56.5988 9.80554 60.8171 9.80554H62.2402V15.9552H60.2072C55.8364 15.9552 53.5493 17.1749 53.5493 20.0719V36.3354Z" fill="black"/>
<path d="M71.9899 36.9453C66.6027 36.9453 63.5532 33.8451 63.5532 29.1185C63.5532 23.6804 67.6699 20.9867 74.8869 20.9867H79.4102V19.0554C79.4102 16.1077 77.9363 14.3797 74.4803 14.3797C71.4309 14.3797 69.7029 15.9044 68.4323 17.734L64.5697 14.278C66.501 11.2286 69.6012 9.19565 74.9377 9.19565C82.1038 9.19565 85.9156 12.6008 85.9156 18.6488V31.1514H88.5584V36.3354H84.9499C82.1546 36.3354 80.4266 34.5058 80.0201 31.7613H79.7151C78.8511 35.1665 75.9542 36.9453 71.9899 36.9453ZM74.1754 32.2187C77.0723 32.2187 79.4102 30.8973 79.4102 28.4069V24.9001H75.2426C71.8375 24.9001 70.1603 26.0691 70.1603 28.1528V29.0168C70.1603 31.1514 71.6342 32.2187 74.1754 32.2187Z" fill="black"/>
<path d="M99.3124 36.3354H92.8069V9.80554H99.3124V14.2272H99.5665C100.634 11.3811 102.87 9.19565 106.987 9.19565C112.425 9.19565 115.474 12.9566 115.474 19.5637V36.3354H108.969V20.2244C108.969 16.4634 107.698 14.5321 104.598 14.5321C101.904 14.5321 99.3124 15.9552 99.3124 18.8013V36.3354Z" fill="black"/>
</svg>
