<svg width="31" height="31" viewBox="0 0 31 31" fill="none" xmlns="http://www.w3.org/2000/svg">
<g clip-path="url(#clip0_2019_429)">
<path d="M25.8675 5.79971L14.7775 1.53971C14.5875 1.46971 14.3675 1.45971 14.1775 1.53971L2.41754 5.84971C2.29754 5.92971 2.22754 6.04971 2.22754 6.17971V18.9697C2.22754 21.7297 3.36754 23.9197 5.42754 25.1497L13.9275 30.2097C14.0875 30.3097 14.2975 30.3097 14.4675 30.2097L22.9575 25.1497C25.0275 23.9197 26.1575 21.7297 26.1575 18.9697V6.18971C26.1575 6.01971 26.0475 5.86971 25.8675 5.79971ZM25.1975 18.9697C25.1975 20.3997 24.8375 23.0097 22.4275 24.4397L14.1975 29.3497L5.96754 24.4397H5.95754L5.73754 24.3097C3.52754 22.8397 3.18754 20.3497 3.18754 18.9697V6.46971L14.4775 2.23971L25.1975 6.46971V18.9697Z" fill="#394508"/>
<path d="M19.8175 12.1297C19.8175 12.2397 19.7675 12.3397 19.6875 12.4197L13.3275 18.4397C13.1475 18.6097 12.8175 18.6097 12.6275 18.4397L9.3175 15.3097C9.2375 15.2297 9.1875 15.1197 9.1875 15.0097C9.1875 14.9097 9.2375 14.7997 9.3175 14.7197C9.4175 14.6297 9.5475 14.5897 9.6675 14.5897C9.7975 14.5897 9.9275 14.6297 10.0275 14.7197L12.9775 17.5197L18.9875 11.8397C19.1775 11.6597 19.4975 11.6597 19.6875 11.8397C19.7675 11.9197 19.8175 12.0197 19.8175 12.1297Z" fill="#394508"/>
</g>
<defs>
<clipPath id="clip0_2019_429">
<rect width="23.93" height="28.81" fill="white" transform="translate(2.22754 1.47974)"/>
</clipPath>
</defs>
</svg>
