<svg width="31" height="31" viewBox="0 0 31 31" fill="none" xmlns="http://www.w3.org/2000/svg">
<g clip-path="url(#clip0_2019_431)">
<path d="M24.2576 12.3897C23.9876 11.8897 23.4576 11.5697 22.9076 11.5697H16.9776L18.7676 2.23974C18.8176 1.79974 18.7476 1.40974 18.5576 1.10974C18.3976 0.849736 18.1576 0.659736 17.8576 0.559736C17.6876 0.509736 17.5176 0.479736 17.3476 0.479736C16.8876 0.479736 16.4376 0.669736 16.1576 0.999736L5.50755 14.9997C5.17755 15.4397 5.13755 16.0197 5.40755 16.5497C5.67755 17.0497 6.20755 17.3697 6.75755 17.3697L12.6776 17.4197L10.8876 27.9797C10.7476 28.8197 11.2576 29.3497 11.7776 29.5597C12.2776 29.7697 13.0376 29.7597 13.5376 29.0897L24.1376 13.9597C24.4776 13.5097 24.5176 12.9197 24.2576 12.3897ZM23.1776 13.2897L12.7976 28.2297C12.7176 28.3597 12.5776 28.4297 12.4376 28.4297C12.3776 28.4297 12.3176 28.4197 12.2576 28.3897C12.0576 28.3097 11.9476 28.1097 11.9876 27.8997L13.9976 16.2797L6.75755 16.2397C6.60755 16.2397 6.46755 16.1497 6.39755 16.0097C6.32755 15.8797 6.34755 15.7097 6.43755 15.5897L16.8176 1.76974C16.9476 1.59974 17.1676 1.53974 17.3576 1.62974C17.5576 1.70974 17.6576 1.90974 17.6176 2.11974L15.6176 12.6097L22.8476 12.6597C23.0076 12.6597 23.1376 12.7397 23.2076 12.8697C23.2775 13.0097 23.2676 13.1697 23.1776 13.2897Z" fill="#394508"/>
</g>
<defs>
<clipPath id="clip0_2019_431">
<rect width="19.2" height="29.2" fill="white" transform="translate(5.22754 0.479736)"/>
</clipPath>
</defs>
</svg>
