<svg width="31" height="31" viewBox="0 0 31 31" fill="none" xmlns="http://www.w3.org/2000/svg">
<g clip-path="url(#clip0_2019_430)">
<path fill-rule="evenodd" clip-rule="evenodd" d="M15.2275 0.479736C6.93754 0.479736 0.227539 7.19974 0.227539 15.4797C0.227539 18.9197 1.38754 22.0897 3.33754 24.6197C3.51754 24.8597 3.70754 25.0897 3.90754 25.3197C4.04754 25.0697 4.25754 24.8497 4.51754 24.7097C4.31754 24.4897 4.13754 24.2697 3.96754 24.0397C2.72754 22.4197 1.83754 20.5297 1.39754 18.4697C1.21754 17.6397 1.10754 16.7797 1.08754 15.9097C1.07754 15.7697 1.07754 15.6197 1.07754 15.4797C1.07754 15.4097 1.07754 15.3397 1.08754 15.2697C1.07754 15.1997 1.07754 15.1197 1.08754 15.0497C1.10754 14.1797 1.21754 13.3197 1.39754 12.4897C2.55754 7.07974 6.81754 2.82974 12.2275 1.65974C13.0575 1.47974 13.9175 1.36974 14.7975 1.34974C14.8675 1.33974 14.9475 1.33974 15.0175 1.34974C15.0875 1.33974 15.1575 1.33974 15.2275 1.33974C15.2975 1.33974 15.3675 1.33974 15.4375 1.34974C15.5075 1.33974 15.5875 1.33974 15.6575 1.34974C16.5375 1.36974 17.3975 1.47974 18.2275 1.65974C23.6275 2.82974 27.8775 7.07974 29.0475 12.4797C29.2275 13.3097 29.3375 14.1697 29.3575 15.0497C29.3675 15.1197 29.3675 15.1997 29.3575 15.2697C29.3675 15.3397 29.3675 15.4097 29.3675 15.4797C29.3675 15.6197 29.3675 15.7697 29.3575 15.9097C29.3375 16.7897 29.2275 17.6497 29.0475 18.4797C27.8775 23.8797 23.6275 28.1297 18.2275 29.2997C17.3975 29.4797 16.5375 29.5897 15.6575 29.6097C15.5175 29.6197 15.3675 29.6197 15.2275 29.6197C15.0875 29.6197 14.9375 29.6197 14.7975 29.6097C13.9175 29.5897 13.0575 29.4797 12.2275 29.2997C10.5675 28.9397 9.00754 28.2897 7.62754 27.4097C7.38754 27.2497 7.14754 27.0897 6.91754 26.9197C6.78754 27.1897 6.60754 27.4197 6.36754 27.5897C6.60754 27.7597 6.85754 27.9297 7.10754 28.0897C9.44754 29.5997 12.2275 30.4797 15.2275 30.4797C23.5075 30.4797 30.2275 23.7597 30.2275 15.4797C30.2275 7.19974 23.5075 0.479736 15.2275 0.479736Z" fill="#394508"/>
<path fill-rule="evenodd" clip-rule="evenodd" d="M21.3975 6.48974C20.5875 4.37974 19.4975 2.69974 18.2275 1.65974C17.3075 0.899736 16.2975 0.479736 15.2275 0.479736C14.1575 0.479736 13.1475 0.899736 12.2275 1.65974C10.5575 3.02974 9.1875 5.50974 8.3575 8.61974C8.2775 8.92974 8.2075 9.24974 8.1375 9.56974C7.8975 10.6297 7.7275 11.7597 7.6275 12.9297C7.5975 13.2197 7.5675 13.5097 7.5575 13.8097C7.6775 13.7897 7.8075 13.7697 7.9375 13.7697C8.1075 13.7697 8.26749 13.7897 8.41749 13.8397C8.42749 13.5397 8.4575 13.2597 8.4875 12.9697C8.5975 11.6897 8.7975 10.4597 9.0775 9.32974C9.1475 9.00974 9.2275 8.69974 9.3175 8.39974C9.6475 7.23974 10.0675 6.18974 10.5375 5.26974C11.7575 2.87974 13.2875 1.57974 14.7975 1.37974C14.8675 1.35974 14.9375 1.35974 15.0175 1.34974C15.0875 1.33974 15.1575 1.33974 15.2275 1.33974C15.2975 1.33974 15.3675 1.33974 15.4375 1.34974C15.5075 1.35974 15.5775 1.35974 15.6575 1.37974C17.1575 1.57974 18.6975 2.87974 19.9175 5.26974C20.1475 5.71974 20.3675 6.20974 20.5675 6.71974C20.6675 6.98974 20.7675 7.25974 20.8675 7.53974C21.0975 7.40974 21.3675 7.33974 21.6575 7.33974H21.6975C21.6075 7.04974 21.5075 6.76974 21.3975 6.48974ZM22.9275 15.0497C22.9175 13.7897 22.8175 12.5797 22.6475 11.4197C22.6075 11.1197 22.5575 10.8197 22.5075 10.5297C22.2575 10.6797 21.9775 10.7697 21.6775 10.7697C21.7275 11.0497 21.7675 11.3297 21.8075 11.6097C21.9675 12.7097 22.0575 13.8597 22.0675 15.0497C22.0675 15.1897 22.0675 15.3397 22.0675 15.4797C22.0675 15.6197 22.0675 15.7697 22.0675 15.9097C22.0475 17.9597 21.7975 19.8997 21.3775 21.6297C21.3075 21.9497 21.2175 22.2597 21.1375 22.5597C20.7975 23.7197 20.3875 24.7697 19.9175 25.6897C18.6975 28.0797 17.1575 29.3797 15.6575 29.5797C15.5075 29.6097 15.3675 29.6197 15.2275 29.6197C15.0875 29.6197 14.9375 29.6097 14.7975 29.5797C13.2875 29.3797 11.7575 28.0797 10.5375 25.6897C10.0675 24.7697 9.6475 23.7197 9.3175 22.5597C9.2275 22.2597 9.1475 21.9497 9.0775 21.6297C8.7975 20.4997 8.5975 19.2697 8.4875 17.9897C8.4575 17.6997 8.42749 17.4197 8.41749 17.1197C8.26749 17.1697 8.1075 17.1897 7.9375 17.1897C7.8075 17.1897 7.6775 17.1697 7.5575 17.1497C7.5675 17.4497 7.5975 17.7397 7.6275 18.0297C7.7275 19.1997 7.8975 20.3297 8.1375 21.3897C8.2075 21.7097 8.2775 22.0297 8.3575 22.3397C9.1875 25.4497 10.5575 27.9297 12.2275 29.2997C13.1475 30.0597 14.1575 30.4797 15.2275 30.4797C16.2975 30.4797 17.3075 30.0597 18.2275 29.2997C19.8975 27.9297 21.2575 25.4497 22.0875 22.3397C22.1675 22.0297 22.2475 21.7097 22.3175 21.3897C22.6875 19.6997 22.9075 17.8497 22.9275 15.9097C22.9375 15.7697 22.9375 15.6197 22.9375 15.4797C22.9375 15.3397 22.9375 15.1897 22.9275 15.0497Z" fill="#394508"/>
<path fill-rule="evenodd" clip-rule="evenodd" d="M29.0475 12.4798C28.0075 11.2098 26.3275 10.1198 24.2175 9.30978C23.9375 9.19978 23.6575 9.09978 23.3675 9.00978V9.04978C23.3675 9.33978 23.2975 9.60978 23.1675 9.84978C23.4475 9.93978 23.7275 10.0398 23.9875 10.1398C24.5075 10.3398 24.9875 10.5598 25.4375 10.7898C27.8275 12.0098 29.1275 13.5498 29.3275 15.0498C29.3375 15.1198 29.3575 15.1998 29.3575 15.2698C29.3675 15.3398 29.3675 15.4098 29.3675 15.4798C29.3675 15.6198 29.3575 15.7598 29.3275 15.9098C29.1275 17.4098 27.8275 18.9498 25.4375 20.1698C24.5275 20.6398 23.4775 21.0498 22.3175 21.3898C22.0175 21.4698 21.6975 21.5598 21.3775 21.6298C19.6475 22.0498 17.7075 22.3098 15.6575 22.3298C15.5175 22.3398 15.3775 22.3398 15.2275 22.3398C15.0875 22.3398 14.9375 22.3398 14.7975 22.3298C12.7475 22.3098 10.8075 22.0598 9.07754 21.6298C8.75754 21.5598 8.43754 21.4798 8.13754 21.3898C6.97754 21.0498 5.92754 20.6398 5.00754 20.1698C2.62754 18.9498 1.31754 17.4098 1.11754 15.9098C1.08754 15.7598 1.07754 15.6198 1.07754 15.4798C1.07754 15.4098 1.07754 15.3398 1.08754 15.2698C1.09754 15.1998 1.09754 15.1198 1.11754 15.0498C1.31754 13.5498 2.62754 12.0098 5.00754 10.7898C5.92754 10.3198 6.97754 9.90978 8.13754 9.56978C8.43754 9.47978 8.75754 9.39978 9.07754 9.32978C10.8075 8.89978 12.7475 8.64978 14.7975 8.62978C14.9375 8.61978 15.0875 8.61978 15.2275 8.61978C15.3775 8.61978 15.5175 8.61978 15.6575 8.62978C16.8475 8.62978 17.9975 8.72978 19.0875 8.89978C19.3775 8.92978 19.6575 8.96978 19.9375 9.02978C19.9375 8.72978 20.0275 8.43978 20.1675 8.19978C19.8775 8.13978 19.5775 8.09978 19.2775 8.05978C18.1175 7.88978 16.9075 7.78978 15.6575 7.77978C15.5175 7.76978 15.3675 7.76978 15.2275 7.76978C15.0875 7.76978 14.9375 7.76978 14.7975 7.77978C12.8475 7.79978 11.0075 8.01978 9.31754 8.39978C8.98754 8.45978 8.66754 8.53978 8.35754 8.61978C5.23754 9.44978 2.76754 10.8198 1.39754 12.4898C0.647539 13.4098 0.227539 14.4198 0.227539 15.4798C0.227539 16.5398 0.647539 17.5498 1.39754 18.4698C2.76754 20.1398 5.23754 21.5098 8.35754 22.3398C8.66754 22.4198 8.98754 22.4998 9.31754 22.5598C11.0075 22.9398 12.8475 23.1598 14.7975 23.1798C14.9375 23.1898 15.0875 23.1898 15.2275 23.1898C15.3675 23.1898 15.5175 23.1898 15.6575 23.1798C17.5975 23.1598 19.4475 22.9398 21.1375 22.5598C21.4575 22.4998 21.7775 22.4198 22.0875 22.3398C25.1975 21.5098 27.6775 20.1498 29.0475 18.4798C29.8075 17.5598 30.2275 16.5398 30.2275 15.4798C30.2275 14.4198 29.8075 13.3998 29.0475 12.4798Z" fill="#394508"/>
<path fill-rule="evenodd" clip-rule="evenodd" d="M21.6575 6.47974C21.5675 6.47974 21.4775 6.47974 21.3975 6.48974C21.0975 6.51974 20.8175 6.59974 20.5675 6.71974C19.9875 6.98974 19.5275 7.46974 19.2775 8.05974C19.1675 8.31974 19.0975 8.59974 19.0875 8.89974C19.0775 8.94974 19.0775 8.99974 19.0775 9.04974C19.0775 10.4697 20.2375 11.6197 21.6575 11.6197C21.7075 11.6197 21.7575 11.6197 21.8075 11.6097C22.1075 11.5997 22.3875 11.5297 22.6475 11.4197C23.2375 11.1797 23.7175 10.7197 23.9875 10.1397C24.1075 9.88974 24.1875 9.60974 24.2175 9.30974C24.2275 9.21974 24.2275 9.13974 24.2275 9.04974C24.2275 7.62974 23.0775 6.47974 21.6575 6.47974ZM23.3675 9.04974C23.3675 9.33974 23.2975 9.60974 23.1675 9.84974C23.0175 10.1397 22.7875 10.3797 22.5075 10.5297C22.2575 10.6797 21.9775 10.7697 21.6775 10.7697H21.6575C20.7075 10.7697 19.9375 9.99974 19.9375 9.04974V9.02974C19.9375 8.72974 20.0275 8.43974 20.1675 8.19974C20.3275 7.90974 20.5675 7.67974 20.8675 7.53974C21.0975 7.40974 21.3675 7.33974 21.6575 7.33974H21.6975C22.6075 7.35974 23.3475 8.08974 23.3675 9.00974V9.04974Z" fill="#394508"/>
<path fill-rule="evenodd" clip-rule="evenodd" d="M5.36749 23.6198C4.84749 23.6198 4.36749 23.7698 3.96749 24.0398C3.72749 24.1898 3.50749 24.3898 3.33749 24.6198C2.99749 25.0598 2.79749 25.5998 2.79749 26.1898C2.79749 27.6098 3.94749 28.7698 5.36749 28.7698C6.03749 28.7698 6.64749 28.5098 7.10749 28.0898C7.31749 27.8998 7.48749 27.6698 7.62749 27.4098C7.82749 27.0398 7.93749 26.6298 7.93749 26.1898C7.93749 24.7698 6.78749 23.6198 5.36749 23.6198ZM6.36749 27.5898C6.08749 27.7898 5.74749 27.9098 5.36749 27.9098C4.41749 27.9098 3.65749 27.1398 3.65749 26.1898C3.65749 25.8698 3.74749 25.5798 3.90749 25.3198C4.04749 25.0698 4.25749 24.8498 4.51749 24.7098C4.76749 24.5598 5.05749 24.4798 5.36749 24.4798C6.31749 24.4798 7.07749 25.2498 7.07749 26.1898C7.07749 26.4498 7.01749 26.6998 6.91749 26.9198C6.78749 27.1898 6.60749 27.4198 6.36749 27.5898Z" fill="#394508"/>
<path fill-rule="evenodd" clip-rule="evenodd" d="M6.28749 15.0497C6.24749 15.1897 6.22749 15.3297 6.22749 15.4797C6.22749 15.6297 6.24749 15.7697 6.28749 15.9097H0.797485V15.0497H6.28749Z" fill="#394508"/>
<path fill-rule="evenodd" clip-rule="evenodd" d="M29.9375 15.0497V15.9097H9.59753C9.63753 15.7697 9.65753 15.6297 9.65753 15.4797C9.65753 15.3297 9.63753 15.1897 9.59753 15.0497H29.9375Z" fill="#394508"/>
<path fill-rule="evenodd" clip-rule="evenodd" d="M14.7976 30.0497V0.909668H15.6576V30.0497H14.7976Z" fill="#394508"/>
<path fill-rule="evenodd" clip-rule="evenodd" d="M10.4676 15.0498C10.2976 14.0098 9.50755 13.1898 8.48755 12.9698C8.30755 12.9298 8.12755 12.9098 7.93755 12.9098C7.82755 12.9098 7.72755 12.9198 7.62755 12.9298C6.49755 13.0698 5.58755 13.9398 5.40755 15.0498C5.37755 15.1898 5.36755 15.3298 5.36755 15.4798C5.36755 15.6298 5.37755 15.7698 5.40755 15.9098C5.58755 17.0198 6.49755 17.8898 7.62755 18.0298C7.72755 18.0398 7.82755 18.0498 7.93755 18.0498C8.12755 18.0498 8.30755 18.0298 8.48755 17.9898C9.50755 17.7698 10.2976 16.9498 10.4676 15.9098C10.4976 15.7698 10.5076 15.6298 10.5076 15.4798C10.5076 15.3298 10.4976 15.1898 10.4676 15.0498ZM8.41755 17.1198C8.26755 17.1698 8.10755 17.1898 7.93755 17.1898C7.80755 17.1898 7.67755 17.1698 7.55755 17.1498C6.93755 16.9998 6.43755 16.5298 6.28755 15.9098C6.24755 15.7698 6.22755 15.6298 6.22755 15.4798C6.22755 15.3298 6.24755 15.1898 6.28755 15.0498C6.43755 14.4298 6.93755 13.9598 7.55755 13.8098C7.67755 13.7898 7.80755 13.7698 7.93755 13.7698C8.10755 13.7698 8.26755 13.7898 8.41755 13.8398C8.99755 13.9998 9.44755 14.4698 9.59755 15.0498C9.63755 15.1898 9.65755 15.3298 9.65755 15.4798C9.65755 15.6298 9.63755 15.7698 9.59755 15.9098C9.44755 16.4898 8.99755 16.9598 8.41755 17.1198Z" fill="#394508"/>
</g>
<defs>
<clipPath id="clip0_2019_430">
<rect width="30" height="30" fill="white" transform="translate(0.227539 0.479736)"/>
</clipPath>
</defs>
</svg>
